<svg xmlns="http://www.w3.org/2000/svg" width="535.43" height="116.82">
    <path d="M68.89 85.33H31.03V10c0-2.57-1.01-4.85-2.86-6.43-1.62-1.38-3.61-2.11-5.75-2.11H8.68c-3.25 0-5.27 1.46-6.4 2.68A8.53 8.53 0 0 0 0 10.01v96.76c0 5.03 3.51 8.55 8.54 8.55h60.34c2.48 0 4.73-.99 6.33-2.78a8.66 8.66 0 0 0 2.22-5.84V94.02c0-2.48-.89-4.65-2.59-6.29-1.63-1.57-3.69-2.4-5.95-2.4zm118.38-56.35h0c-2.51-4.31-5.59-8.3-9.14-11.86-3.55-3.55-7.54-6.63-11.86-9.14-4.3-2.51-8.98-4.48-13.92-5.87C147.38.71 142.16 0 136.83 0c-5.37 0-10.62.71-15.59 2.11-4.93 1.39-9.61 3.37-13.92 5.87-4.32 2.52-8.3 5.6-11.84 9.15-3.52 3.54-6.58 7.52-9.11 11.82-2.54 4.32-4.52 9.03-5.9 14-1.37 4.98-2.07 10.2-2.07 15.52 0 5.37.7 10.6 2.07 15.56 1.37 4.94 3.34 9.63 5.85 13.92s5.57 8.25 9.1 11.78c3.52 3.53 7.5 6.6 11.8 9.13 4.32 2.54 9.02 4.52 13.96 5.89 4.96 1.38 10.19 2.07 15.56 2.07s10.61-.7 15.56-2.07c4.94-1.37 9.63-3.33 13.94-5.85a58.72 58.72 0 0 0 11.84-9.09c3.56-3.53 6.64-7.52 9.15-11.83a60.32 60.32 0 0 0 5.87-13.88c1.4-4.95 2.11-10.18 2.11-15.56 0-5.37-.71-10.62-2.11-15.62-1.35-4.94-3.32-9.63-5.83-13.94zM164.1 58.35c0 3.92-.71 7.61-2.11 10.98-1.41 3.39-3.36 6.36-5.8 8.85-2.45 2.49-5.38 4.49-8.72 5.96-3.27 1.44-6.88 2.17-10.71 2.17-3.88 0-7.5-.73-10.77-2.17-3.33-1.46-6.25-3.46-8.67-5.94-2.43-2.48-4.37-5.47-5.78-8.86-1.4-3.37-2.11-7.07-2.11-10.98 0-3.87.71-7.54 2.11-10.92 1.41-3.4 3.36-6.4 5.79-8.91 2.42-2.5 5.33-4.5 8.65-5.96 3.27-1.44 6.9-2.17 10.77-2.17 3.83 0 7.43.73 10.7 2.17 3.33 1.46 6.26 3.48 8.7 5.98 2.45 2.51 4.41 5.5 5.82 8.9 1.42 3.36 2.13 7.03 2.13 10.9zM430.89 8.13c0-3.81-2.93-6.68-6.82-6.68h-19.12c-.38 0-.77.04-1.15.12-1.01.22-1.86.47-2.59.79-2.08.91-3.23 2.76-4 4.28l-16.17 30.58-16.08-30.39-1.02-1.76c-.62-.96-1.35-1.73-2.19-2.29a7.09 7.09 0 0 0-3.09-1.13l-.18-.04a5.53 5.53 0 0 0-1.34-.17h-18.98c-3.89 0-6.82 2.81-6.82 6.54 0 .81.15 1.66.46 2.66.3.95.73 1.79 1.28 2.51l32.34 55.6v37.79c0 5.24 3.38 8.76 8.41 8.76h14.13c5.15 0 8.62-3.52 8.62-8.76V68.65l16.04-27.44 16.4-28.25c.88-1.11 1.87-2.75 1.87-4.83zm104.31 97.66l-.01-.08c-.04-.55-.17-1.1-.38-1.62l-36.57-91.5c-.01-.03-.03-.07-.04-.1l-2.29-5.4a6.77 6.77 0 0 0-.26-.54c-.43-.76-1-1.55-1.73-2.39-1.08-1.24-3.09-2.71-6.53-2.71h-11.15c-3.2 0-5.25 1.38-6.42 2.55-1.2 1.2-2 2.43-2.44 3.74l-37.25 92.75c-.03.06-.05.13-.07.2l-.75 2.03a27.84 27.84 0 0 0-.97 3.08c-.18.63-.26 1.31-.26 2.07 0 2.58 1.25 4.82 3.44 6.16 1.4.85 3.07 1.28 4.97 1.28h13.85c4.03 0 7.29-2.29 8.76-6.16l2.82-7.32 2.2-5.64h35.12l1.26 3.24 3.87 9.82c.02.04.03.08.05.13.75 1.78 1.81 3.2 3.16 4.21 1.52 1.14 3.43 1.72 5.65 1.72h13.65c5.9 0 8.55-3.81 8.55-7.58a12.1 12.1 0 0 0-.23-1.94zm-65.98-35.46l11.87-28.9 11.87 28.9z" fill="#454452" />
    <linearGradient id="A" gradientUnits="userSpaceOnUse" x1="211.042" y1="31.395" x2="254.008" y2="31.395">
        <stop offset="0" stop-color="#0085de" />
        <stop offset=".988" stop-color="#00437d" />
    </linearGradient>
    <linearGradient id="B" gradientUnits="userSpaceOnUse" x1="264.947" y1="85.298" x2="318.852" y2="85.298">
        <stop offset="0" stop-color="#0085de" />
        <stop offset=".988" stop-color="#00437d" />
    </linearGradient>
    <linearGradient gradientUnits="userSpaceOnUse" x1="234.327" y1="58.345" x2="295.557" y2="58.345">
        <stop offset="0" stop-color="#0085de" />
        <stop offset=".988" stop-color="#00437d" />
    </linearGradient>
    <linearGradient id="D" gradientUnits="userSpaceOnUse" x1="211.146" y1="58.38" x2="318.852" y2="58.38">
        <stop offset=".146" stop-color="#0095ff" />
        <stop offset="1" stop-color="#0ff" />
    </linearGradient>
    <path d="M234.36 58.32l-.03.03-16.97-16.97c-8.42-8.42-8.42-22.2 0-30.62 4.21-4.21 9.76-6.31 15.31-6.31s11.1 2.1 15.31 6.31l5.93 5.94c0-.01 2.68 15.98-19.55 41.62z" fill="url(#A)" />
    <path d="M312.54 105.94c-8.42 8.42-22.2 8.42-30.62 0l-16.97-16.97L275.99 100s-2.69-15.99 19.57-41.65h.01l16.97 16.97c8.42 8.41 8.42 22.2 0 30.62z" fill="url(#B)" />
    <path d="M312.54 41.38l-16.97 16.97h-.01C273.3 84.01 275.99 100 275.99 100l-9.63-9.62a1.98 1.98 0 0 0-2.81 0l-15.56 15.56c-4.21 4.21-9.76 6.31-15.31 6.31-5.68 0-11.35-2.2-15.6-6.6-8.25-8.56-7.75-22.29.65-30.7l16.6-16.6.03-.03c22.23-25.64 19.55-41.62 19.55-41.62l8.84 8.83a3.12 3.12 0 0 0 4.4 0l14.42-14.42c7.94-7.94 20.73-8.92 29.39-1.79 9.97 8.21 10.49 23.14 1.58 32.06z" fill="url(#D)" />
</svg>
